<svg width="32" height="32" viewBox="0 0 32 32" fill="none" xmlns="http://www.w3.org/2000/svg">
<g clip-path="url(#clip0_197_4468)">
<path d="M16 18C18.7614 18 21 15.3137 21 12C21 8.68629 18.7614 6 16 6C13.2386 6 11 8.68629 11 12C11 15.3137 13.2386 18 16 18Z" fill="#54A6FF"/>
<path d="M29.8632 10.7523L26.5989 7.80103C25.3798 6.6943 23.5117 6.73961 22.3449 7.90457C22.1286 8.11816 21.9517 8.35762 21.8075 8.62296C22.4629 9.65851 22.8431 10.8817 22.8431 12.1891C22.8431 12.3379 22.8365 12.4803 22.83 12.6292L26.363 16.027L24.2982 17.0107H20.798C19.5658 18.2081 17.8681 18.9524 16 18.9524C14.1319 18.9524 12.4342 18.2081 11.202 17.0107H7.70177L5.63702 16.027L9.17002 12.6292C9.16346 12.4803 9.15689 12.3379 9.15689 12.1891C9.15689 10.8817 9.53708 9.65851 10.1925 8.62296C10.0549 8.3641 9.87137 8.11816 9.65506 7.90457C8.4883 6.73961 6.62023 6.6943 5.40106 7.80103L2.1368 10.7523C0.78001 11.982 0 13.7294 0 15.5481C0 18.4087 1.85495 20.9069 4.62105 21.7612L6.90208 22.4602V31.3528C6.90208 31.7088 7.19048 32 7.55755 32H24.4425C24.8095 32 25.0979 31.7088 25.0979 31.3528V22.4602L27.3789 21.7612C30.145 20.9069 32 18.4087 32 15.5481C32 13.7294 31.22 11.982 29.8632 10.7523Z" fill="#54A6FF"/>
<path d="M10.3528 1.35095C10.1518 1.01538 9.70735 0.900335 9.36268 1.09414C9.0159 1.28794 8.897 1.71698 9.09729 2.0522L10.6472 4.64937C10.7817 4.87434 11.0251 5 11.2757 5C11.3988 5 11.5234 4.96987 11.6373 4.90618C11.9841 4.71238 12.103 4.28334 11.9027 3.94812L10.3528 1.35095Z" fill="#54A6FF"/>
<path d="M17 3.36306V0.63694C17 0.286631 16.55 0 16 0C15.45 0 15 0.286631 15 0.63694V3.36306C15 3.71337 15.45 4 16 4C16.55 4 17 3.71337 17 3.36306Z" fill="#54A6FF"/>
<path d="M20.7255 5C20.9719 5 21.2184 4.87377 21.3488 4.64947L22.9001 2.0485C23.1031 1.71898 22.9871 1.28432 22.6392 1.09506C22.2912 0.898746 21.849 1.01791 21.6461 1.34744L20.0948 3.9484C19.8991 4.2849 20.0151 4.71254 20.363 4.90184C20.479 4.96491 20.6022 5 20.7255 5Z" fill="#54A6FF"/>
</g>
<defs>
<clipPath id="clip0_197_4468">
<rect width="32" height="32" fill="white"/>
</clipPath>
</defs>
</svg>
