<svg width="32" height="32" viewBox="0 0 32 32" fill="none" xmlns="http://www.w3.org/2000/svg">
<path d="M17.2902 23.29C17.1802 23.4 17.1002 23.53 17.0502 23.68L16.0502 26.68C15.9302 27.04 16.0202 27.44 16.2902 27.7C16.4802 27.89 16.7402 27.99 17.0002 27.99C17.1102 27.99 17.2102 27.97 17.3202 27.94L20.3202 26.94C20.4702 26.89 20.6002 26.81 20.7102 26.7L27.0002 20.41L23.5902 17L17.3002 23.29H17.2902Z" fill="#0057B5"/>
<path d="M27.59 14C26.95 14 26.33 14.26 25.88 14.71L25 15.59L28.41 19L29.29 18.12C29.74 17.67 30 17.05 30 16.41C30 15.08 28.92 14 27.59 14Z" fill="#0057B5"/>
<path d="M11 16C14.3137 16 17 13.3137 17 10C17 6.68629 14.3137 4 11 4C7.68629 4 5 6.68629 5 10C5 13.3137 7.68629 16 11 16Z" fill="#0057B5"/>
<path d="M16.11 16.1499C14.72 17.2999 12.94 17.9999 11 17.9999C9.06 17.9999 7.28 17.2999 5.89 16.1499C3.56 17.5499 2 20.0899 2 22.9999V26.9999C2 27.5499 2.45 27.9999 3 27.9999H14.17C13.95 27.3799 13.93 26.6999 14.15 26.0499L15.15 23.0499C15.29 22.6099 15.54 22.2099 15.87 21.8799L18.85 18.8999C18.17 17.7699 17.23 16.8299 16.1 16.1499H16.11Z" fill="#0057B5"/>
</svg>
