<svg width="33" height="32" viewBox="0 0 33 32" fill="none" xmlns="http://www.w3.org/2000/svg">
<g clip-path="url(#clip0_534_5038)">
<path d="M16.1819 8.66687C16.6587 9.44187 16.9681 10.3188 17.0787 11.2306L21.2325 6.22C21.9125 5.39937 22.8425 4.82875 23.8669 4.585C22.9456 2.83563 21.1106 1.65625 19 1.65625C17.4293 1.66475 16.1599 2.04781 15.0312 2.84313C15.7619 3.73438 16.2281 4.79625 16.3912 5.9475C16.5219 6.87188 16.4494 7.79375 16.1819 8.66687Z" fill="#13B9B2"/>
<path d="M1.67796 13.2812H10.723L8.81678 11.3568H5.33359C4.82609 11.3568 4.41484 10.9456 4.41484 10.4381C4.41484 9.93058 4.82609 9.51932 5.33359 9.51932H6.97921L3.89171 6.4312C3.53296 6.07245 3.53296 5.49057 3.89234 5.13182C4.25109 4.77308 4.83296 4.77308 5.19171 5.13182L8.27859 8.21932V6.5737C8.27859 6.0662 8.68984 5.65495 9.19734 5.65495C9.70484 5.65495 10.1167 6.0662 10.1167 6.5737V10.0575L13.3905 13.2812H15.0611C15.5117 11.7862 15.1486 10.1131 14.043 8.9412C14.9648 7.2437 14.6886 5.1062 13.2742 3.69182C11.8592 2.2762 9.72359 1.99995 8.02671 2.92245C6.3439 1.28201 3.58203 1.26689 1.88921 2.88557C1.00984 3.71745 0.516714 4.84183 0.500464 6.04995C0.483589 7.23558 0.927964 8.35182 1.75046 9.1987C1.05609 10.4762 1.04046 12.0018 1.67796 13.2812Z" fill="#13B9B2"/>
<path d="M22.6763 7.41629L17.8145 13.2813H28.3801L28.4683 13.2082C29.1176 12.6694 29.5126 11.8769 29.552 11.0338C29.5869 10.2867 29.3391 9.5541 28.8675 8.98154C30.0549 8.57235 31.2122 8.90317 31.2871 8.92554C31.7805 9.07685 32.3038 8.80135 32.4573 8.30817C32.6113 7.81385 32.3354 7.28829 31.8411 7.13429C31.7591 7.10879 30.5238 6.73748 29.0546 7.00148C29.3186 5.53223 28.9474 4.29679 28.9218 4.21479C28.7679 3.72048 28.2417 3.44217 27.7473 3.59617C27.253 3.7501 26.9763 4.27335 27.1302 4.76773C27.1498 4.83304 27.483 5.98685 27.0793 7.17492C26.4848 6.60073 25.6765 6.29342 24.8495 6.33198C24.0063 6.37192 23.2144 6.76692 22.6763 7.41629Z" fill="#13B9B2"/>
<path d="M31.562 15.1561H1.4375C0.92 15.1561 0.5 15.5409 0.5 16.0144C0.5 19.757 2.09313 23.2749 4.985 25.9213C5.24063 26.1551 5.50313 26.3793 5.77313 26.5937H27.2263C27.4963 26.3793 27.7588 26.1551 28.0144 25.9213C30.9063 23.2749 32.4994 19.757 32.4994 16.0139C32.4995 15.5404 32.0795 15.1561 31.562 15.1561Z" fill="#13B9B2"/>
<path d="M28.0624 28.4688H4.9375C4.42 28.4688 4 28.8888 4 29.4062C4 29.9237 4.42 30.3438 4.9375 30.3438H28.0624C28.5799 30.3438 28.9999 29.9237 28.9999 29.4062C28.9999 28.8888 28.5799 28.4688 28.0624 28.4688Z" fill="#13B9B2"/>
</g>
<defs>
<clipPath id="clip0_534_5038">
<rect width="32" height="32" fill="white" transform="translate(0.5)"/>
</clipPath>
</defs>
</svg>
