<svg width="187" height="50" viewBox="0 0 187 50" fill="none" xmlns="http://www.w3.org/2000/svg">
<rect x="0.000488281" width="50" height="50" rx="7.5" fill="url(#paint0_linear_6218_4415)"/>
<path d="M39.6596 33.6914H36.627C35.3748 33.6914 34.4186 33.3197 33.7586 32.5763C33.1156 31.833 32.7941 30.946 32.7941 29.9154V22.9952H31.3979V19.8038H32.7941V15.625H36.3381V19.8038H39.6987V22.9952H36.3381V29.7127C36.3381 30.5067 36.4747 30.9038 37.2362 30.9038H39.6596V33.6914Z" fill="white"/>
<path d="M22.0718 18.7714H15.6956C14.9504 18.7714 14.4254 18.9152 14.1206 19.2028C13.8327 19.4903 13.6887 19.9894 13.6887 20.6998V23.2119H20.0649V26.3583H13.6887V33.6914H10.1577V19.3043C10.1577 17.9679 10.4456 17.0206 11.0214 16.4623C11.6142 15.9041 12.6218 15.625 14.0444 15.625H22.0718V18.7714Z" fill="white"/>
<rect x="24.5132" y="21.6797" width="3.51562" height="12.0605" fill="white"/>
<circle cx="26.271" cy="17.3828" r="1.75781" fill="#13B9B2"/>
<path d="M137.362 35.625C134.311 35.625 132.876 34.4458 132.876 31.4978V24.4226H130.966V21.6028H132.876V18.2446H136.657V21.6028H139.169V24.4226H136.657V31.0876C136.657 32.3694 137.234 32.3438 138.361 32.3438C138.695 32.3438 139.374 32.3438 139.374 32.3438V35.625C139.374 35.625 138.144 35.625 137.362 35.625Z" fill="#3C3C3C"/>
<path d="M126.862 19.8335C125.734 19.8335 124.862 18.9491 124.862 17.8853C124.862 16.8214 125.734 15.937 126.862 15.937C127.99 15.937 128.861 16.8214 128.861 17.8853C128.861 18.9491 127.99 19.8335 126.862 19.8335ZM124.99 35.3425V21.6023H128.733V35.3425H124.99Z" fill="#3C3C3C"/>
<path d="M110.17 35.3422V16.8467H122.283V20.0382H114.041V24.9985H121.565V28.0619H114.041V35.3422H110.17Z" fill="#3C3C3C"/>
<path d="M97.1978 39.8658C96.4672 39.8658 95.7238 39.7761 95.288 39.6992V36.9178C95.5571 36.9691 95.9929 37.046 96.5441 37.046C97.6592 37.046 98.2744 36.7256 98.6077 35.7899L98.7743 35.3413L93.9165 21.6011H98.0309L100.928 32.342H101.03L103.94 21.6011H107.887L103.171 35.5848C102.094 38.8276 100.248 39.8658 97.1978 39.8658Z" fill="#3C3C3C"/>
<path d="M86.5687 35.625C82.3646 35.625 79.814 32.8949 79.814 28.4985V28.4857C79.814 24.115 82.3903 21.3208 86.4149 21.3208C90.4396 21.3208 92.9646 24.0509 92.9646 28.2037V29.3573H83.5054C83.5438 31.5491 84.7358 32.8308 86.6456 32.8308C88.1837 32.8308 89.1194 31.9849 89.3885 31.2158L89.4142 31.1389H92.8492L92.8108 31.2799C92.3878 33.3051 90.4908 35.625 86.5687 35.625ZM86.479 24.115C84.9409 24.115 83.7874 25.1404 83.5438 26.9989H89.3757C89.145 25.1019 88.0299 24.115 86.479 24.115Z" fill="#3C3C3C"/>
<path d="M60.8291 35.3422V16.8467H64.7V24.3577H73.0312V16.8467H76.9021V35.3422H73.0312V27.5492H64.7V35.3422H60.8291Z" fill="#3C3C3C"/>
<rect x="160.75" y="12.25" width="25.5" height="25.5" rx="12.75" stroke="#13B9B2" stroke-width="1.5"/>
<path d="M168.779 29.1393C168.484 29.4526 168.499 29.9455 168.812 30.2403C169.126 30.5351 169.619 30.5201 169.913 30.2069L168.779 29.1393ZM178.432 20.8226C178.419 20.3927 178.06 20.0547 177.63 20.0677L170.624 20.28C170.194 20.293 169.856 20.6521 169.869 21.0821C169.882 21.512 170.241 21.85 170.671 21.837L176.899 21.6483L177.088 27.8762C177.101 28.3061 177.46 28.6441 177.89 28.6311C178.32 28.6181 178.658 28.2589 178.645 27.829L178.432 20.8226ZM169.913 30.2069L178.221 21.38L177.087 20.3124L168.779 29.1393L169.913 30.2069Z" fill="#13B9B2"/>
<defs>
<linearGradient id="paint0_linear_6218_4415" x1="0.000488281" y1="0" x2="31.4458" y2="43.75" gradientUnits="userSpaceOnUse">
<stop stop-color="#28282A"/>
<stop offset="1" stop-color="#0A0A0A"/>
</linearGradient>
</defs>
</svg>
