<svg width="254" height="50" viewBox="0 0 254 50" fill="none" xmlns="http://www.w3.org/2000/svg">
<path d="M33.6995 18.6741C36.0749 18.6741 38.0006 16.7323 38.0006 14.3371C38.0006 11.9418 36.0749 10 33.6995 10C31.3241 10 29.3984 11.9418 29.3984 14.3371C29.3984 16.7323 31.3241 18.6741 33.6995 18.6741Z" fill="#00336B"/>
<path d="M24.6724 33.1019C19.2865 33.1019 14.7982 29.2397 13.7481 24.1128C13.4771 22.7969 12.3593 21.8398 11.0213 21.8398H10.9535C9.14126 21.8398 7.80324 23.5317 8.17585 25.3261C9.76792 33.0336 16.5596 38.844 24.6724 38.844C32.7852 38.844 39.5769 33.0336 41.169 25.3261C41.5416 23.5317 40.2036 21.8398 38.3913 21.8398C37.0533 21.8398 35.8677 22.7798 35.5967 24.1128C34.5466 29.2397 30.0414 33.1019 24.6724 33.1019Z" fill="#00336B"/>
<path d="M24.7343 33.1019C19.3473 33.1019 14.8581 29.2397 13.8078 24.1128C13.5368 22.7969 12.4187 21.8398 11.0804 21.8398H11.0127C9.20006 21.8398 7.86177 23.5317 8.23446 25.3261C9.82685 33.0336 16.6199 38.844 24.7343 38.844C32.8487 38.844 39.6418 33.0336 41.2341 25.3261C41.6068 23.5317 40.2686 21.8398 38.4559 21.8398C37.1177 21.8398 35.9318 22.7798 35.6608 24.1128C34.6105 29.2397 30.1044 33.1019 24.7343 33.1019Z" fill="url(#paint0_linear_6089_1160)"/>
<path d="M14.7956 27.0156C14.7618 26.9472 14.7279 26.8788 14.694 26.8105C14.694 26.7934 14.6771 26.7934 14.6771 26.7763C14.1858 25.8193 13.847 24.7768 13.6437 23.6831C13.271 22.6406 12.3562 21.9058 11.2551 21.8203H10.6961C9.01901 21.9741 7.81625 23.5805 8.17199 25.2895C8.95125 29.0834 11.001 32.4159 13.847 34.8255C13.9148 34.8939 13.9995 34.9452 14.0672 35.0135C14.118 35.0648 14.2244 35.1768 14.2922 35.211C16.3081 36.8003 18.4857 37.9216 21.2277 38.4638C23.0064 38.8226 24.6718 37.4061 24.6718 35.5775C24.6718 34.3641 23.9049 33.3442 22.7868 32.934C19.314 32.353 16.3711 30.0575 14.7956 27.0156Z" fill="#00336B"/>
<path d="M15.6331 18.6741C18.0085 18.6741 19.9342 16.7323 19.9342 14.3371C19.9342 11.9418 18.0085 10 15.6331 10C13.2577 10 11.332 11.9418 11.332 14.3371C11.332 16.7323 13.2577 18.6741 15.6331 18.6741Z" fill="#00336B"/>
<path d="M247.312 37.9198C245.922 37.9198 244.675 37.6643 243.571 37.1533C242.467 36.6211 241.588 35.9078 240.933 35.0136C240.3 34.1194 239.952 33.1294 239.891 32.0436H244.215C244.297 32.7249 244.614 33.2891 245.166 33.7362C245.738 34.1833 246.443 34.4068 247.282 34.4068C248.1 34.4068 248.733 34.2365 249.183 33.8959C249.653 33.5552 249.889 33.1188 249.889 32.5865C249.889 32.0116 249.602 31.5858 249.03 31.309C248.478 31.011 247.588 30.6916 246.362 30.351C245.094 30.0316 244.051 29.7016 243.233 29.3609C242.436 29.0203 241.741 28.4987 241.148 27.7961C240.576 27.0935 240.289 26.146 240.289 24.9537C240.289 23.9744 240.555 23.0802 241.087 22.2711C241.639 21.4621 242.416 20.8233 243.417 20.3549C244.44 19.8865 245.636 19.6523 247.006 19.6523C249.03 19.6523 250.645 20.1846 251.851 21.2492C253.058 22.2924 253.722 23.7082 253.845 25.4967H249.735C249.674 24.7941 249.388 24.2405 248.876 23.836C248.386 23.4102 247.721 23.1973 246.883 23.1973C246.106 23.1973 245.503 23.3463 245.074 23.6444C244.665 23.9424 244.46 24.3576 244.46 24.8899C244.46 25.486 244.746 25.9438 245.319 26.2631C245.891 26.5612 246.781 26.8699 247.987 27.1893C249.214 27.5086 250.226 27.8386 251.023 28.1793C251.821 28.5199 252.506 29.0522 253.078 29.7761C253.671 30.4787 253.978 31.4155 253.998 32.5865C253.998 33.6084 253.722 34.5239 253.17 35.333C252.638 36.142 251.862 36.7808 250.839 37.2492C249.837 37.6963 248.662 37.9198 247.312 37.9198Z" fill="#00336B"/>
<path d="M230.601 37.9198C229.211 37.9198 227.964 37.6643 226.86 37.1533C225.756 36.6211 224.877 35.9078 224.222 35.0136C223.589 34.1194 223.241 33.1294 223.18 32.0436H227.504C227.586 32.7249 227.903 33.2891 228.455 33.7362C229.027 34.1833 229.733 34.4068 230.571 34.4068C231.389 34.4068 232.022 34.2365 232.472 33.8959C232.942 33.5552 233.178 33.1188 233.178 32.5865C233.178 32.0116 232.891 31.5858 232.319 31.309C231.767 31.011 230.877 30.6916 229.651 30.351C228.383 30.0316 227.34 29.7016 226.523 29.3609C225.725 29.0203 225.03 28.4987 224.437 27.7961C223.865 27.0935 223.578 26.146 223.578 24.9537C223.578 23.9744 223.844 23.0802 224.376 22.2711C224.928 21.4621 225.705 20.8233 226.707 20.3549C227.729 19.8865 228.925 19.6523 230.295 19.6523C232.319 19.6523 233.934 20.1846 235.14 21.2492C236.347 22.2924 237.011 23.7082 237.134 25.4967H233.024C232.963 24.7941 232.677 24.2405 232.166 23.836C231.675 23.4102 231.01 23.1973 230.172 23.1973C229.395 23.1973 228.792 23.3463 228.363 23.6444C227.954 23.9424 227.749 24.3576 227.749 24.8899C227.749 25.486 228.036 25.9438 228.608 26.2631C229.18 26.5612 230.07 26.8699 231.276 27.1893C232.503 27.5086 233.515 27.8386 234.312 28.1793C235.11 28.5199 235.795 29.0522 236.367 29.7761C236.96 30.4787 237.267 31.4155 237.287 32.5865C237.287 33.6084 237.011 34.5239 236.459 35.333C235.928 36.142 235.151 36.7808 234.128 37.2492C233.126 37.6963 231.951 37.9198 230.601 37.9198Z" fill="#00336B"/>
<path d="M220.969 28.4028C220.969 29.0416 220.928 29.6164 220.846 30.1274H208.425C208.527 31.4048 208.957 32.4055 209.713 33.1294C210.47 33.8533 211.4 34.2152 212.504 34.2152C214.099 34.2152 215.234 33.502 215.908 32.0755H220.539C220.049 33.7788 219.108 35.184 217.718 36.2911C216.327 37.3769 214.62 37.9198 212.596 37.9198C210.96 37.9198 209.488 37.5472 208.18 36.8021C206.892 36.0356 205.88 34.9604 205.144 33.5765C204.428 32.1926 204.07 30.5958 204.07 28.7861C204.07 26.9551 204.428 25.3476 205.144 23.9637C205.859 22.5798 206.861 21.5153 208.149 20.7701C209.437 20.0249 210.92 19.6523 212.596 19.6523C214.211 19.6523 215.653 20.0143 216.92 20.7382C218.208 21.4621 219.2 22.4947 219.895 23.836C220.611 25.156 220.969 26.6783 220.969 28.4028ZM216.522 27.1254C216.501 25.9757 216.103 25.0602 215.326 24.3789C214.549 23.6763 213.598 23.325 212.473 23.325C211.41 23.325 210.511 23.6657 209.775 24.347C209.059 25.007 208.619 25.9331 208.456 27.1254H216.522Z" fill="#00336B"/>
<path d="M194.314 19.6836C196.338 19.6836 197.973 20.3543 199.221 21.6956C200.468 23.0156 201.091 24.8679 201.091 27.2525V37.6317H196.798V27.8592C196.798 26.4541 196.46 25.3789 195.786 24.6337C195.111 23.8672 194.191 23.484 193.026 23.484C191.84 23.484 190.899 23.8672 190.204 24.6337C189.529 25.3789 189.192 26.4541 189.192 27.8592V37.6317H184.898V19.9391H189.192V22.1427C189.764 21.3762 190.49 20.7801 191.369 20.3543C192.269 19.9071 193.25 19.6836 194.314 19.6836Z" fill="#00336B"/>
<path d="M180.653 14V37.6327H176.359V14H180.653Z" fill="#00336B"/>
<path d="M172.118 14V37.6327H167.824V14H172.118Z" fill="#00336B"/>
<path d="M164.691 28.4028C164.691 29.0416 164.65 29.6164 164.569 30.1274H152.148C152.25 31.4048 152.679 32.4055 153.436 33.1294C154.192 33.8533 155.123 34.2152 156.227 34.2152C157.822 34.2152 158.956 33.502 159.631 32.0755H164.262C163.771 33.7788 162.831 35.184 161.44 36.2911C160.05 37.3769 158.343 37.9198 156.319 37.9198C154.683 37.9198 153.211 37.5472 151.903 36.8021C150.614 36.0356 149.602 34.9604 148.866 33.5765C148.151 32.1926 147.793 30.5958 147.793 28.7861C147.793 26.9551 148.151 25.3476 148.866 23.9637C149.582 22.5798 150.584 21.5153 151.872 20.7701C153.16 20.0249 154.642 19.6523 156.319 19.6523C157.934 19.6523 159.375 20.0143 160.643 20.7382C161.931 21.4621 162.923 22.4947 163.618 23.836C164.333 25.156 164.691 26.6783 164.691 28.4028ZM160.244 27.1254C160.224 25.9757 159.825 25.0602 159.048 24.3789C158.271 23.6763 157.321 23.325 156.196 23.325C155.133 23.325 154.233 23.6657 153.497 24.347C152.782 25.007 152.342 25.9331 152.179 27.1254H160.244Z" fill="#00336B"/>
<path d="M146.094 15.3398L140.114 37.6313H135.053L131.036 21.759L126.834 37.6313L121.805 37.6632L116.039 15.3398H120.639L124.412 32.6492L128.766 15.3398H133.551L137.66 32.5534L141.463 15.3398H146.094Z" fill="#00336B"/>
<path d="M115.166 19.9414L104.647 46.0013H100.077L103.758 37.1869L96.9492 19.9414H101.764L106.15 32.3007L110.597 19.9414H115.166Z" fill="#00336B"/>
<path d="M95.7772 28.4028C95.7772 29.0416 95.7363 29.6164 95.6545 30.1274H83.2338C83.3361 31.4048 83.7654 32.4055 84.5219 33.1294C85.2784 33.8533 86.2087 34.2152 87.3127 34.2152C88.9075 34.2152 90.0422 33.502 90.7169 32.0755H95.3479C94.8572 33.7788 93.9167 35.184 92.5264 36.2911C91.1361 37.3769 89.4288 37.9198 87.4047 37.9198C85.7691 37.9198 84.297 37.5472 82.9885 36.8021C81.7004 36.0356 80.6883 34.9604 79.9523 33.5765C79.2367 32.1926 78.8789 30.5958 78.8789 28.7861C78.8789 26.9551 79.2367 25.3476 79.9523 23.9637C80.6679 22.5798 81.6697 21.5153 82.9578 20.7701C84.2459 20.0249 85.7282 19.6523 87.4047 19.6523C89.0199 19.6523 90.4613 20.0143 91.729 20.7382C93.017 21.4621 94.0087 22.4947 94.7038 23.836C95.4194 25.156 95.7772 26.6783 95.7772 28.4028ZM91.3303 27.1254C91.3098 25.9757 90.9111 25.0602 90.1342 24.3789C89.3573 23.6763 88.4066 23.325 87.2821 23.325C86.2189 23.325 85.3193 23.6657 84.5832 24.347C83.8676 25.007 83.4281 25.9331 83.2645 27.1254H91.3303Z" fill="#00336B"/>
<path d="M75.757 15.3398V37.6313H71.4634V28.1462H62.2936V37.6313H58V15.3398H62.2936V24.5055H71.4634V15.3398H75.757Z" fill="#00336B"/>
<defs>
<linearGradient id="paint0_linear_6089_1160" x1="4.59743" y1="31.5013" x2="38.3216" y2="25.4377" gradientUnits="userSpaceOnUse">
<stop offset="0.37896" stop-color="#0F7AD3" stop-opacity="0.44"/>
<stop offset="1" stop-color="white" stop-opacity="0"/>
</linearGradient>
</defs>
</svg>
