<svg width="193" height="50" viewBox="0 0 193 50" fill="none" xmlns="http://www.w3.org/2000/svg">
<rect width="50" height="50" rx="7.5" fill="url(#paint0_linear_6218_4333)"/>
<g filter="url(#filter0_d_6218_4333)">
<path fill-rule="evenodd" clip-rule="evenodd" d="M23.1475 19.1087C20.9772 19.5014 19.2013 21.0536 18.5268 23.1474C18.2872 23.8908 18.2389 24.2808 18.2702 25.2184C18.3043 26.24 18.4539 26.8591 18.8603 27.6621C19.2077 28.3485 19.5301 28.7843 20.0897 29.3241C20.8549 30.0622 21.8199 30.5871 22.8617 30.8318C23.5737 30.9991 24.8079 30.9987 25.472 30.831C26.5492 30.5591 27.4161 30.093 28.1894 29.37C28.6695 28.9211 29.0928 28.3912 29.2467 28.0466C29.3685 27.7736 29.2735 27.486 28.9792 27.2372C28.5171 26.8465 27.9954 26.7101 27.701 26.9031C27.6293 26.9501 27.4609 27.1414 27.3267 27.3281C26.7508 28.1294 25.8997 28.721 25.0247 28.9283C24.5703 29.0359 23.7279 29.034 23.2731 28.9241C22.5722 28.7548 21.8602 28.3247 21.3473 27.7607C20.6069 26.9464 20.4316 26.2437 20.9152 26.0288C21.0708 25.9597 21.3056 25.9403 21.9845 25.9401C22.7544 25.9399 22.8769 25.9272 23.0489 25.829C23.4081 25.624 23.6462 24.8986 23.556 24.2844C23.4687 23.6899 23.0516 23.5558 22.139 23.8285C21.5198 24.0136 21.0182 24.0156 20.7926 23.8339C20.5655 23.6511 20.5799 23.3228 20.8346 22.8755C21.4157 21.8551 22.4732 21.1293 23.6411 20.9494C25.1392 20.7188 26.7152 21.5092 27.4827 22.8763C27.7184 23.296 27.7509 23.6074 27.5797 23.8054C27.4075 24.0044 26.8886 24.0163 26.2688 23.8355C25.1576 23.5113 24.7484 23.768 24.8361 24.734C24.8971 25.4044 25.1203 25.7824 25.516 25.8853C25.7798 25.9539 27.5919 25.9551 28.0952 25.887C28.9559 25.7706 29.6008 25.3865 29.8515 24.841C30.2833 23.9017 29.5907 22.0145 28.3698 20.8036C27.5606 20.001 26.7389 19.5199 25.6647 19.2199C25.0211 19.0401 23.8197 18.987 23.1475 19.1087Z" fill="white"/>
</g>
<g filter="url(#filter1_d_6218_4333)">
<path d="M37.6147 19.043C38.5383 19.043 39.3624 19.2344 40.0871 19.6174C40.826 20.0003 41.4015 20.5677 41.8135 21.3194C42.2256 22.0711 42.4316 22.9789 42.4316 24.0426V29.7852C42.4316 30.4324 41.907 30.957 41.2598 30.957H41.195C40.5478 30.957 40.0232 30.4324 40.0232 29.7852V24.4043C40.0232 23.3547 39.7603 22.5534 39.2346 22.0002C38.7088 21.4329 37.9913 21.1492 37.0819 21.1492C36.1725 21.1492 35.4478 21.4329 34.9078 22.0002C34.3821 22.5534 34.1192 23.3547 34.1192 24.4043V29.7852C34.1192 30.4324 33.5946 30.957 32.9474 30.957H32.8613C32.2141 30.957 31.6895 30.4324 31.6895 29.7852V20.4063C31.6895 19.7591 32.2141 19.2344 32.8613 19.2344H32.9474C33.5946 19.2344 34.1192 19.7591 34.1192 20.4063V20.5748C34.5171 20.0925 35.0215 19.7167 35.6325 19.4472C36.2577 19.1777 36.9185 19.043 37.6147 19.043Z" fill="white"/>
</g>
<g filter="url(#filter2_d_6218_4333)">
<path d="M10.4432 28.9124H16.2628C16.8274 28.9124 17.2852 29.3701 17.2852 29.9347C17.2852 30.4993 16.8274 30.957 16.2628 30.957H8.69141C8.0442 30.957 7.51953 30.4324 7.51953 29.7852V29.4927C7.51953 29.1183 7.65396 28.7564 7.89834 28.4728L14.2618 21.0876H8.54185C7.97724 21.0876 7.51953 20.6299 7.51953 20.0653C7.51953 19.5007 7.97724 19.043 8.54185 19.043H15.9915C16.6387 19.043 17.1633 19.5676 17.1633 20.2148V20.5087C17.1633 20.8822 17.0295 21.2434 16.7862 21.5267L10.4432 28.9124Z" fill="white"/>
</g>
<path d="M143.987 20.1445C145.637 20.1445 146.971 20.6695 147.988 21.7195C149.004 22.7529 149.513 24.2029 149.513 26.0695V34.1945H146.012V26.5445C146.012 25.4445 145.738 24.6029 145.188 24.0195C144.638 23.4195 143.887 23.1195 142.937 23.1195C141.971 23.1195 141.204 23.4195 140.638 24.0195C140.088 24.6029 139.812 25.4445 139.812 26.5445V34.1945H136.312V20.3445H139.812V22.0695C140.279 21.4695 140.871 21.0029 141.587 20.6695C142.321 20.3195 143.121 20.1445 143.987 20.1445Z" fill="#3395FF"/>
<path d="M134.257 26.9711C134.257 27.4711 134.224 27.9211 134.157 28.3211H124.032C124.116 29.3211 124.466 30.1044 125.082 30.6711C125.699 31.2378 126.457 31.5211 127.357 31.5211C128.657 31.5211 129.582 30.9628 130.132 29.8461H133.907C133.507 31.1794 132.741 32.2794 131.607 33.1461C130.474 33.9961 129.082 34.4211 127.432 34.4211C126.099 34.4211 124.899 34.1294 123.832 33.5461C122.782 32.9461 121.957 32.1044 121.357 31.0211C120.774 29.9378 120.482 28.6878 120.482 27.2711C120.482 25.8378 120.774 24.5794 121.357 23.4961C121.941 22.4128 122.757 21.5794 123.807 20.9961C124.857 20.4128 126.066 20.1211 127.432 20.1211C128.749 20.1211 129.924 20.4044 130.957 20.9711C132.007 21.5378 132.816 22.3461 133.382 23.3961C133.966 24.4294 134.257 25.6211 134.257 26.9711ZM130.632 25.9711C130.616 25.0711 130.291 24.3544 129.657 23.8211C129.024 23.2711 128.249 22.9961 127.332 22.9961C126.466 22.9961 125.732 23.2628 125.132 23.7961C124.549 24.3128 124.191 25.0378 124.057 25.9711H130.632Z" fill="#3395FF"/>
<path d="M111.054 31.2461H118.904V34.1961H107.004V31.4961L114.804 19.6961H107.004V16.7461H118.904V19.4461L111.054 31.2461Z" fill="#3395FF"/>
<path d="M106.092 20.3438L97.5172 40.7437H93.7922L96.7922 33.8437L91.2422 20.3438H95.1672L98.7422 30.0187L102.367 20.3438H106.092Z" fill="#3395FF"/>
<path d="M90.7887 26.9711C90.7887 27.4711 90.7553 27.9211 90.6887 28.3211H80.5637C80.647 29.3211 80.997 30.1044 81.6137 30.6711C82.2303 31.2378 82.9887 31.5211 83.8887 31.5211C85.1887 31.5211 86.1137 30.9628 86.6637 29.8461H90.4387C90.0387 31.1794 89.272 32.2794 88.1387 33.1461C87.0053 33.9961 85.6137 34.4211 83.9637 34.4211C82.6303 34.4211 81.4303 34.1294 80.3637 33.5461C79.3137 32.9461 78.4887 32.1044 77.8887 31.0211C77.3053 29.9378 77.0137 28.6878 77.0137 27.2711C77.0137 25.8378 77.3053 24.5794 77.8887 23.4961C78.472 22.4128 79.2887 21.5794 80.3387 20.9961C81.3887 20.4128 82.597 20.1211 83.9637 20.1211C85.2803 20.1211 86.4553 20.4044 87.4887 20.9711C88.5387 21.5378 89.347 22.3461 89.9137 23.3961C90.497 24.4294 90.7887 25.6211 90.7887 26.9711ZM87.1637 25.9711C87.147 25.0711 86.822 24.3544 86.1887 23.8211C85.5553 23.2711 84.7803 22.9961 83.8637 22.9961C82.997 22.9961 82.2637 23.2628 81.6637 23.7961C81.0803 24.3128 80.722 25.0378 80.5887 25.9711H87.1637Z" fill="#3395FF"/>
<path d="M74.9672 16.7461V34.1961H71.4672V26.7711H63.9922V34.1961H60.4922V16.7461H63.9922V23.9211H71.4672V16.7461H74.9672Z" fill="#3395FF"/>
<rect x="166.75" y="12.25" width="25.5" height="25.5" rx="12.75" stroke="#3395FF" stroke-width="1.5"/>
<path d="M174.779 29.1393C174.484 29.4526 174.499 29.9455 174.812 30.2403C175.126 30.5351 175.619 30.5201 175.913 30.2069L174.779 29.1393ZM184.432 20.8226C184.419 20.3927 184.06 20.0547 183.63 20.0677L176.624 20.28C176.194 20.293 175.856 20.6521 175.869 21.0821C175.882 21.512 176.241 21.85 176.671 21.837L182.899 21.6483L183.088 27.8762C183.101 28.3061 183.46 28.6441 183.89 28.6311C184.32 28.6181 184.658 28.2589 184.645 27.829L184.432 20.8226ZM175.913 30.2069L184.221 21.38L183.087 20.3124L174.779 29.1393L175.913 30.2069Z" fill="#3395FF"/>
<defs>
<filter id="filter0_d_6218_4333" x="13.3789" y="16.1133" width="21.4844" height="21.6797" filterUnits="userSpaceOnUse" color-interpolation-filters="sRGB">
<feFlood flood-opacity="0" result="BackgroundImageFix"/>
<feColorMatrix in="SourceAlpha" type="matrix" values="0 0 0 0 0 0 0 0 0 0 0 0 0 0 0 0 0 0 127 0" result="hardAlpha"/>
<feOffset dy="1.95312"/>
<feGaussianBlur stdDeviation="2.44141"/>
<feComposite in2="hardAlpha" operator="out"/>
<feColorMatrix type="matrix" values="0 0 0 0 0.0805888 0 0 0 0 0.287968 0 0 0 0 0.599038 0 0 0 1 0"/>
<feBlend mode="normal" in2="BackgroundImageFix" result="effect1_dropShadow_6218_4333"/>
<feBlend mode="normal" in="SourceGraphic" in2="effect1_dropShadow_6218_4333" result="shape"/>
</filter>
<filter id="filter1_d_6218_4333" x="26.8066" y="16.1133" width="20.5078" height="21.6797" filterUnits="userSpaceOnUse" color-interpolation-filters="sRGB">
<feFlood flood-opacity="0" result="BackgroundImageFix"/>
<feColorMatrix in="SourceAlpha" type="matrix" values="0 0 0 0 0 0 0 0 0 0 0 0 0 0 0 0 0 0 127 0" result="hardAlpha"/>
<feOffset dy="1.95312"/>
<feGaussianBlur stdDeviation="2.44141"/>
<feComposite in2="hardAlpha" operator="out"/>
<feColorMatrix type="matrix" values="0 0 0 0 0.0805888 0 0 0 0 0.287968 0 0 0 0 0.599038 0 0 0 1 0"/>
<feBlend mode="normal" in2="BackgroundImageFix" result="effect1_dropShadow_6218_4333"/>
<feBlend mode="normal" in="SourceGraphic" in2="effect1_dropShadow_6218_4333" result="shape"/>
</filter>
<filter id="filter2_d_6218_4333" x="2.63672" y="16.1133" width="19.5312" height="21.6797" filterUnits="userSpaceOnUse" color-interpolation-filters="sRGB">
<feFlood flood-opacity="0" result="BackgroundImageFix"/>
<feColorMatrix in="SourceAlpha" type="matrix" values="0 0 0 0 0 0 0 0 0 0 0 0 0 0 0 0 0 0 127 0" result="hardAlpha"/>
<feOffset dy="1.95312"/>
<feGaussianBlur stdDeviation="2.44141"/>
<feComposite in2="hardAlpha" operator="out"/>
<feColorMatrix type="matrix" values="0 0 0 0 0.0805888 0 0 0 0 0.287968 0 0 0 0 0.599038 0 0 0 1 0"/>
<feBlend mode="normal" in2="BackgroundImageFix" result="effect1_dropShadow_6218_4333"/>
<feBlend mode="normal" in="SourceGraphic" in2="effect1_dropShadow_6218_4333" result="shape"/>
</filter>
<linearGradient id="paint0_linear_6218_4333" x1="25" y1="7.08678e-07" x2="48.7793" y2="50" gradientUnits="userSpaceOnUse">
<stop stop-color="#0063F8"/>
<stop offset="1" stop-color="#00BDF8"/>
</linearGradient>
</defs>
</svg>
