<svg width="32" height="32" viewBox="0 0 32 32" fill="none" xmlns="http://www.w3.org/2000/svg">
<g clip-path="url(#clip0_197_4471)">
<path d="M31.7255 23.1909C31.274 22.7394 30.7928 22.3311 30.2848 21.9655C29.2025 23.2154 27.9318 24.266 26.499 25.0931C24.2798 26.3746 21.7557 27.0588 19.1943 27.075C20.5545 27.6235 22.0208 27.9112 23.5316 27.9112C26.6268 27.9112 29.5368 26.7059 31.7255 24.5172C31.9013 24.3414 32.0001 24.1029 32.0001 23.8543C32.0001 23.6057 31.9013 23.3667 31.7255 23.1909Z" fill="#54A6FF"/>
<path d="M1.71531 21.9655C1.20731 22.3311 0.726125 22.7394 0.274625 23.1909C0.0988125 23.3667 0 23.6057 0 23.8543C0 24.1029 0.0988125 24.3414 0.274625 24.5172C2.46331 26.7059 5.37331 27.9112 8.46856 27.9112C9.97931 27.9112 11.4457 27.6235 12.8058 27.075C10.2443 27.0588 7.72038 26.3746 5.50088 25.0929C4.06825 24.266 2.7975 23.2154 1.71531 21.9655Z" fill="#54A6FF"/>
<path d="M6.43852 23.4692C7.99708 24.3692 9.80902 24.9727 11.7408 25.1476C8.40277 23.3001 6.59871 20.735 5.74952 19.2642C4.81564 17.6468 4.18446 15.8944 3.87058 14.0504C2.93802 14.0904 2.00964 14.2296 1.10639 14.4697C0.693895 14.5682 0.387207 14.9395 0.387207 15.3821C0.387207 15.4641 0.397957 15.5457 0.419207 15.6249C1.37671 19.1963 3.71458 21.8968 6.43852 23.4692Z" fill="#54A6FF"/>
<path d="M20.2563 25.1472C22.1881 24.9722 24.0001 24.3688 25.5587 23.4688C28.2826 21.8964 30.6205 19.1959 31.578 15.6246C31.5993 15.5454 31.61 15.4637 31.61 15.3817C31.61 14.9391 31.3033 14.5678 30.8908 14.4693C29.9876 14.2292 29.0592 14.0899 28.1267 14.05C27.8128 15.894 27.1816 17.6464 26.2477 19.2638C25.3985 20.7346 23.5965 23.2984 20.2563 25.1472Z" fill="#54A6FF"/>
<path d="M11.7091 22.9357C10.7618 21.4055 9.29065 18.4682 9.29065 14.4418C9.29065 12.4014 9.66833 10.4167 10.4122 8.5337C9.38758 7.94926 8.28896 7.49476 7.14515 7.18838C6.6449 7.05451 6.13108 7.35113 5.99702 7.8512C4.97377 11.6686 5.69546 15.4176 7.37602 18.3281C8.39633 20.0953 9.86158 21.7101 11.7091 22.9357Z" fill="#54A6FF"/>
<path d="M20.2937 22.9363C22.1417 21.7106 23.6073 20.0956 24.6277 18.3282C26.3083 15.4176 27.03 11.6686 26.0067 7.85122C25.8726 7.35116 25.3588 7.05447 24.8586 7.18841C23.7146 7.49478 22.6159 7.94941 21.5911 8.53397C22.3349 10.4168 22.7126 12.4015 22.7126 14.4418C22.7126 18.4717 21.2388 21.4098 20.2937 22.9363Z" fill="#54A6FF"/>
<path d="M16.6627 4.36213C16.4868 4.18631 16.2478 4.0875 15.9992 4.0875C15.7506 4.0875 15.5122 4.18631 15.3363 4.36213C12.8808 6.81769 11.1626 10.3624 11.1626 14.4391C11.1626 18.5176 12.8827 22.0624 15.3363 24.516C15.5122 24.6918 15.7512 24.7906 15.9998 24.7906C16.2484 24.7906 16.4868 24.6918 16.6627 24.516C19.1157 22.0631 20.8364 18.5185 20.8364 14.4391C20.8365 10.3606 19.117 6.81631 16.6627 4.36213Z" fill="#54A6FF"/>
</g>
<defs>
<clipPath id="clip0_197_4471">
<rect width="32" height="32" fill="white"/>
</clipPath>
</defs>
</svg>
