<svg width="32" height="32" viewBox="0 0 32 32" fill="none" xmlns="http://www.w3.org/2000/svg">
<path d="M29.0499 6.90991C29.0499 5.25995 27.7 3.90991 26.0499 3.90991H24.3499V6.80994C24.3499 8.46991 22.9999 9.80994 21.3499 9.80994C19.6899 9.80994 18.3499 8.46991 18.3499 6.80994V3.90991H13.65V6.80994C13.65 8.46991 12.3099 9.80994 10.65 9.80994C8.99994 9.80994 7.64996 8.46991 7.64996 6.80994V3.90991H5.94995C4.29993 3.90991 2.94995 5.25995 2.94995 6.90991V26.9999C2.94995 28.6499 4.29993 29.9999 5.94995 29.9999H21.2299C21.09 29.8999 20.95 29.7899 20.83 29.6699L17.9299 26.7699C16.7599 25.5999 16.7599 23.7 17.9299 22.5299C19.0999 21.3599 20.9999 21.3599 22.1699 22.5299L22.95 23.3099L25.9299 20.3299C26.77 19.4899 27.9999 19.2499 29.0499 19.6199V6.90991ZM21.9999 20.45H9.99994C9.44995 20.45 8.99994 20.0099 8.99994 19.45C8.99994 18.8999 9.44995 18.45 9.99994 18.45H21.9999C22.5499 18.45 22.9999 18.8999 22.9999 19.45C22.9999 20.0099 22.5499 20.45 21.9999 20.45ZM21.9999 15.45H9.99994C9.44995 15.45 8.99994 15.0099 8.99994 14.45C8.99994 13.8999 9.44995 13.45 9.99994 13.45H21.9999C22.5499 13.45 22.9999 13.8999 22.9999 14.45C22.9999 15.0099 22.5499 15.45 21.9999 15.45Z" fill="#0057B5"/>
<path d="M10.6538 2C10.1016 2 9.65381 2.44775 9.65381 3V6.81348C9.65381 7.36572 10.1016 7.81348 10.6538 7.81348C11.2061 7.81348 11.6538 7.36572 11.6538 6.81348V3C11.6538 2.44775 11.2061 2 10.6538 2Z" fill="#0057B5"/>
<path d="M20.3462 3V6.81348C20.3462 7.36572 20.7939 7.81348 21.3462 7.81348C21.8984 7.81348 22.3462 7.36572 22.3462 6.81348V3C22.3462 2.44775 21.8984 2 21.3462 2C20.7939 2 20.3462 2.44775 20.3462 3Z" fill="#0057B5"/>
<path d="M27.3428 21.7432L22.9512 26.1357L20.7568 23.9414C20.3662 23.5508 19.7334 23.5508 19.3428 23.9414C18.9521 24.332 18.9521 24.9648 19.3428 25.3555L22.2441 28.2568C22.4316 28.4443 22.686 28.5498 22.9512 28.5498C23.2163 28.5498 23.4707 28.4443 23.6582 28.2568L28.7568 23.1572C29.1475 22.7666 29.1475 22.1338 28.7568 21.7432C28.3662 21.3525 27.7334 21.3525 27.3428 21.7432Z" fill="#0057B5"/>
</svg>
