<svg width="32" height="32" viewBox="0 0 32 32" fill="none" xmlns="http://www.w3.org/2000/svg">
<path d="M6.33203 22.2148V23.0433L7.15938 23.092C10.9847 23.318 14.1159 20.935 16 17.5777C17.8646 20.9002 20.9848 23.3185 24.8406 23.092L25.668 23.0433V22.2148C25.668 16.8113 23.1461 15.0002 21.1199 13.5447C20.6078 13.1773 20.1408 12.841 19.7529 12.4754C18.6725 13.6642 17.3752 14.3047 16 14.3047C14.626 14.3047 13.3293 13.6642 12.2488 12.4742C11.8604 12.8404 11.3928 13.1767 10.8801 13.5447C8.85391 15.0002 6.33203 16.8113 6.33203 22.2148Z" fill="#54A6FF"/>
<path d="M16 12.5469C18.5796 12.5469 20.3945 8.70881 20.3945 6.39453C20.3945 3.97139 18.4231 2 16 2C13.5769 2 11.6055 3.97139 11.6055 6.39453C11.6055 8.71121 13.4271 12.5469 16 12.5469Z" fill="#54A6FF"/>
<path d="M29.2998 25.0963C29.1394 25.1159 21.4095 23.2803 16.0007 29.6931C10.5507 23.2067 2.9217 25.1233 2.70016 25.0963C2.70637 25.1098 2.86346 28.1759 5.05662 30.2422H1V32H31V30.2422H26.8956C29.1872 28.1758 29.1884 25.5038 29.2998 25.0963Z" fill="#54A6FF"/>
<path d="M15.9982 20.6094C14.6729 22.173 13.3938 23.3205 11.4818 24.1033C11.4631 24.1408 11.4437 24.1777 11.4238 24.2146C12.9655 24.8189 14.5889 25.8214 16.0029 27.1437C17.4246 25.8243 19.0894 24.812 20.585 24.2386C20.5615 24.1941 20.5375 24.149 20.5146 24.1033C18.6142 23.3252 17.3303 22.1834 15.9982 20.6094Z" fill="#54A6FF"/>
</svg>
