<svg width="32" height="32" viewBox="0 0 32 32" fill="none" xmlns="http://www.w3.org/2000/svg">
<g clip-path="url(#clip0_6027_31207)">
<path d="M0 6.45862C0 2.89734 2.86797 0 6.39315 0C9.91832 0 12.7863 2.89734 12.7863 6.45862C12.7863 10.0199 9.91832 12.9172 6.39315 12.9172C2.86797 12.9172 0 10.0199 0 6.45862ZM3.44598 4.05135C2.48491 5.02226 2.48491 6.60172 3.44598 7.57263L5.85474 10.0061C6.004 10.1561 6.19895 10.2315 6.39315 10.2315C6.5881 10.2315 6.78306 10.1561 6.93232 10.0061L9.34108 7.57263C10.3021 6.60172 10.3021 5.02226 9.34108 4.05135C8.87501 3.58052 8.25664 3.32202 7.59791 3.32202C7.16916 3.32202 6.75716 3.43203 6.39315 3.63822C6.02989 3.43203 5.6179 3.32202 5.18915 3.32202C4.53041 3.32202 3.91204 3.58052 3.44598 4.05135ZM6.39315 8.37428L8.26349 6.48478C8.63132 6.11396 8.63132 5.51003 8.26349 5.1392C8.08605 4.95918 7.84921 4.8607 7.59791 4.8607C7.3466 4.8607 7.10976 4.95918 6.93232 5.1392C6.63455 5.43925 6.1525 5.43925 5.85474 5.1392C5.6773 4.95918 5.44046 4.8607 5.18915 4.8607C4.93784 4.8607 4.701 4.95918 4.52356 5.1392C4.15574 5.51003 4.15574 6.11396 4.52356 6.48478L6.39315 8.37428ZM15.4395 12.2341C15.4395 7.62187 19.1543 3.86902 23.7197 3.86902C28.286 3.86902 32 7.62187 32 12.2341C32 16.8463 28.286 20.5991 23.7197 20.5991C19.1543 20.5991 15.4395 16.8463 15.4395 12.2341ZM18.2831 17.234C18.2831 17.6595 18.6243 18.0034 19.0446 18.0034H26.8916C27.8069 18.0034 28.2486 17.5948 28.4581 17.2517C28.7703 16.7386 28.7155 16.1331 28.5974 15.6815C28.9508 15.3445 29.0871 14.9814 29.1336 14.6998C29.215 14.2136 29.0688 13.7743 28.9005 13.4535C29.215 12.8672 29.1853 12.3841 29.0841 12.0571C28.7992 11.1308 27.7772 10.8069 27.6623 10.7731C27.6554 10.7716 27.6493 10.77 27.6432 10.7677L27.0743 10.6177L27.4269 10.1445C27.4582 10.103 27.4848 10.0584 27.5069 10.0114C28.2943 8.33813 27.0188 7.02794 26.2336 6.56787C25.9221 6.38554 25.5254 6.44862 25.2847 6.7202L22.6102 9.73756C20.519 9.79911 18.8596 10.3946 18.7865 10.4207C18.4841 10.5307 18.2831 10.8208 18.2831 11.1447V17.234ZM27.1642 16.4293C27.1924 16.2947 27.1033 15.9438 27.0035 15.743C26.8169 15.3684 26.9616 14.9122 27.3279 14.7167C27.5023 14.6236 27.6188 14.5198 27.6318 14.4452C27.6531 14.3251 27.5237 14.0897 27.4208 13.9743C27.1505 13.6935 27.1475 13.2704 27.3934 12.9673C27.6188 12.6888 27.6371 12.5395 27.6303 12.5141C27.6082 12.441 27.4094 12.3079 27.2396 12.2518L25.5886 11.8148C25.3426 11.7502 25.1454 11.5655 25.0623 11.3232C24.9786 11.0808 25.0205 10.8123 25.1735 10.6077L26.1582 9.28903C26.3166 8.88513 26.146 8.53892 25.9351 8.29274L23.5225 11.0147C23.3778 11.1778 23.1714 11.2709 22.9552 11.2709C21.624 11.2709 20.4444 11.5363 19.8062 11.7132V16.4647H26.8916C27.0401 16.4647 27.1269 16.4439 27.1642 16.4293ZM10.8695 21.9509H10.887C11.7079 21.9416 12.3682 21.2592 12.3591 20.4299C12.3492 19.6098 11.6821 18.9427 10.8703 18.9427H10.8527C10.0326 18.952 9.37154 19.6344 9.38144 20.4637C9.39058 21.2838 10.0577 21.9509 10.8695 21.9509ZM10.9411 23.4895H10.9038C10.0615 23.4988 9.27254 23.8396 8.6831 24.4489C8.27568 24.8697 7.99771 25.3844 7.86749 25.943L13.9933 25.873C13.6377 24.5051 12.3987 23.4895 10.9411 23.4895ZM20.3012 21.5162L20.356 26.4346C20.3629 27.067 20.1238 27.6663 19.6821 28.1225C19.2404 28.5795 18.6525 28.8342 18.0265 28.8419L8.05026 28.9557C7.84769 28.958 7.65502 29.0411 7.51414 29.1873L4.79238 32L4.76725 29.7628C4.76261 29.3412 4.42227 29.0019 4.00571 29.0019C3.99353 29.0019 3.98203 29.0026 3.96992 29.0026C2.68291 29.0026 1.62894 27.9525 1.61447 26.6492L1.52385 18.5658C1.50862 17.2533 2.55345 16.1731 3.85264 16.1585L14.6673 16.0346C15.7091 18.5588 17.7569 20.5568 20.3012 21.5162ZM15.6185 26.6238C15.5987 24.832 14.5782 23.2726 13.1008 22.4886C13.5935 21.9401 13.8905 21.21 13.8814 20.4122C13.8631 18.7535 12.5121 17.404 10.8703 17.404H10.836C9.17506 17.4233 7.83931 18.8035 7.85835 20.4814C7.86673 21.2738 8.17972 21.9962 8.68386 22.534C8.28634 22.7548 7.92004 23.0364 7.5941 23.3734C6.72061 24.2758 6.24693 25.4683 6.2614 26.7308C6.26597 27.1531 6.60562 27.4917 7.02294 27.4917H7.03132L14.8653 27.4016C15.0679 27.3993 15.2605 27.3162 15.4014 27.1701C15.5431 27.0247 15.6208 26.8277 15.6185 26.6238Z" fill="#0057B5"/>
</g>
<defs>
<clipPath id="clip0_6027_31207">
<rect width="32" height="32" fill="white"/>
</clipPath>
</defs>
</svg>
