<svg width="32" height="32" viewBox="0 0 32 32" fill="none" xmlns="http://www.w3.org/2000/svg">
<g clip-path="url(#clip0_197_4470)">
<path d="M29.3968 19.2412C28.2919 19.8051 26.9443 19.8269 25.8427 19.2421C24.7611 18.668 24.0425 17.5471 23.9872 16.3218C23.9324 15.1088 24.5174 13.9297 25.4716 13.1906C26.4666 12.42 27.8083 12.1508 29.0155 12.5225C30.1859 12.8829 31.1146 13.8287 31.4133 15.0221C31.7063 16.1924 31.3542 17.4504 30.5585 18.3458C30.2316 18.7136 29.835 19.0175 29.3968 19.2412Z" fill="#54A6FF"/>
<path d="M23.4352 15.6978C23.4282 15.5397 23.4411 15.3834 23.421 15.2253C23.4011 15.0693 23.4016 14.9103 23.3957 14.7531C23.3815 14.3703 23.3673 13.9876 23.3531 13.6048C23.3216 12.7571 23.2986 11.9089 23.2793 11.0609C23.2592 10.1785 23.2396 9.2961 23.2243 8.41368C23.2177 8.03429 23.2196 7.65362 23.2028 7.27457C23.1857 6.88928 23.169 6.50399 23.1521 6.1187C23.115 5.27315 23.0844 4.42678 23.0641 3.58062C23.0468 2.85112 23.0409 2.12155 23.0268 1.39205C23.0149 0.777441 22.5922 0.225307 22.0013 0.0546622C21.4047 -0.11768 20.7493 0.128746 20.4128 0.649984C20.2568 0.891657 20.188 1.16626 20.1864 1.45194C20.1844 1.80633 20.1785 2.16066 20.1726 2.51506C20.159 3.34621 20.1353 4.17737 20.1043 5.00811C20.087 5.47353 20.0695 5.93895 20.049 6.40424C20.0346 6.73201 20.008 7.06162 20.0057 7.38974C20.0058 7.37256 20.0033 7.3528 20.0063 7.33589C19.9893 7.43164 19.9917 7.53709 19.9843 7.63358C19.9675 7.85258 19.9509 8.0715 19.9342 8.2905C19.9005 8.73289 19.8654 9.17523 19.8308 9.61763C19.7966 10.0555 19.76 10.4932 19.7242 10.931C19.7068 11.1439 19.6883 11.3567 19.6701 11.5695C19.6667 11.6103 19.72 11.6187 19.7546 11.6353C19.7904 11.6524 19.826 11.6698 19.8615 11.6875C19.9414 11.7273 20.0206 11.7684 20.0994 11.8105C20.3332 11.9357 20.5634 12.069 20.7844 12.2157C20.8682 12.2713 20.9513 12.3289 21.0294 12.3924C21.0758 12.43 21.1325 12.4728 21.1605 12.5271C20.6522 12.3606 20.1457 12.1793 19.6301 12.0365C19.631 12.026 19.2785 11.941 19.2427 11.9318C19.1031 11.8956 18.9627 11.8619 18.8219 11.8303C18.5244 11.7636 18.2247 11.7069 17.9236 11.659C16.448 11.4243 14.944 11.3978 13.4543 11.4777C12.6974 11.5183 11.9386 11.5949 11.2052 11.7945C10.9256 11.8705 10.6503 11.9645 10.3862 12.0838C10.2696 12.1364 10.1552 12.1941 10.044 12.2573C9.99356 12.286 9.94371 12.3158 9.89462 12.3469C9.81096 12.3685 9.72839 12.3945 9.64744 12.4247C9.33305 12.5419 9.04323 12.7231 8.80108 12.9554C8.5736 13.1735 8.41137 13.4305 8.2611 13.7046C7.89937 14.3643 7.54403 15.0278 7.19303 15.6933C6.38795 17.2196 5.60073 18.7552 4.82349 20.2959C4.65733 20.6253 4.47643 20.9509 4.32534 21.2875C4.22416 21.5128 4.12298 21.7381 4.0218 21.9634C3.65614 22.7776 3.29291 23.5929 2.93146 24.409C2.25703 25.932 1.60045 27.4627 0.952168 28.997C0.83381 29.2772 0.716402 29.5577 0.601983 29.8394C0.482199 30.129 0.452999 30.4522 0.517713 30.7588C0.64972 31.3845 1.16654 31.8787 1.79847 31.9806C2.40873 32.0791 3.03576 31.7978 3.36761 31.2764C3.73986 30.6913 4.07952 30.0837 4.4327 29.487C5.30588 28.012 6.15164 26.5206 6.99868 25.0305C7.36965 24.3779 7.73436 23.7217 8.1018 23.0672C8.10023 23.0701 8.09867 23.0731 8.09704 23.076C8.10112 23.0688 8.10485 23.0614 8.10886 23.0542C8.08801 23.0918 8.06805 23.1299 8.04761 23.1676C8.79843 22.0269 9.55075 20.8867 10.2899 19.7386C10.5444 19.3433 10.7898 18.942 11.0377 18.5424C11.053 18.6106 11.0322 18.6911 11.0184 18.7577C10.9933 18.8789 10.9587 18.9982 10.9219 19.1164C10.8284 19.4165 10.717 19.7117 10.5926 20.0004C10.5638 20.0674 10.534 20.134 10.5031 20.2002C10.4886 20.2313 10.4738 20.2622 10.4587 20.2931C10.4514 20.3079 10.4441 20.3227 10.4368 20.3374C10.4201 20.3708 10.4277 20.3756 10.4463 20.4085C10.5506 20.5922 10.6557 20.7755 10.7607 20.9588C10.9746 21.3322 11.19 21.7047 11.4065 22.0767C11.6153 22.4354 11.8247 22.7938 12.0362 23.151C12.1456 23.3358 12.2551 23.5206 12.3644 23.7054C12.4116 23.7852 12.4588 23.8649 12.5059 23.9447C12.521 23.9702 12.5415 23.9963 12.5525 24.0239C12.5318 23.972 12.5049 23.9225 12.4827 23.8712C12.6549 24.2688 12.8604 24.6558 13.0487 25.0457C13.434 25.8438 13.823 26.64 14.217 27.4338C14.5917 28.1888 14.9703 28.9418 15.353 29.6929C15.5294 30.039 15.7071 30.3845 15.8878 30.7284C15.9925 30.9276 16.0873 31.143 16.2187 31.3268C16.597 31.856 17.2854 32.0995 17.9121 31.9248C18.5113 31.7579 18.9642 31.2368 19.0455 30.6199C19.0785 30.3694 19.0437 30.1254 18.9671 29.8864C18.8701 29.5837 18.7729 29.2811 18.6739 28.9791C18.4146 28.1884 18.1506 27.3991 17.8785 26.6128C17.3955 25.2169 16.9025 23.8246 16.4034 22.4342C16.3855 22.3844 16.3676 22.3346 16.3497 22.2848C16.3539 22.2938 16.3584 22.3027 16.3622 22.3119C16.3403 22.2599 16.3106 22.1987 16.2897 22.1533C16.1505 21.8175 16.0116 21.4817 15.8724 21.146C15.7915 20.9506 15.7102 20.7554 15.6283 20.5604C15.5881 20.4646 15.5478 20.3689 15.5072 20.2734C15.4267 20.2639 15.3464 20.2527 15.2663 20.2404C14.9467 20.191 14.6287 20.1255 14.3163 20.0421C14.1941 20.0094 14.0721 19.9743 13.9534 19.9303C13.8856 19.9053 13.8 19.8787 13.7476 19.8259C14.3153 19.8322 14.8905 19.8431 15.4531 19.8297C16.2536 19.8106 17.0539 19.7491 17.8455 19.6274C18.4478 19.5349 19.045 19.4071 19.63 19.236C19.7013 20.0691 19.7718 20.9022 19.837 21.7358C19.8702 22.1607 19.9039 22.5856 19.9362 23.0106C19.9523 23.2207 19.9682 23.4308 19.9843 23.6409C19.9916 23.7373 19.9893 23.8428 20.0063 23.9385C20.0033 23.9216 20.0058 23.9019 20.0057 23.8847C20.0077 24.1692 20.0308 24.455 20.0433 24.7393C20.0623 25.1724 20.0797 25.6057 20.0958 26.0389C20.1266 26.8682 20.158 27.6983 20.1688 28.5281C20.1737 28.9048 20.1836 29.2814 20.1854 29.6582C20.1867 29.9472 20.2024 30.2197 20.3335 30.4843C20.6087 31.0398 21.2302 31.3579 21.8418 31.256C22.4459 31.1553 22.9296 30.658 23.0135 30.0513C23.0315 29.9212 23.0274 29.7892 23.028 29.6582C23.0288 29.4822 23.0319 29.3062 23.0348 29.1302C23.0414 28.73 23.0476 28.3299 23.0581 27.9299C23.1003 26.3198 23.192 24.7112 23.22 23.1009C23.2501 21.3661 23.2909 19.6316 23.345 17.8974C23.3572 17.5052 23.3736 17.113 23.3882 16.7208C23.3938 16.5707 23.3993 16.4205 23.405 16.2703C23.4121 16.0786 23.4437 15.8901 23.4352 15.6978Z" fill="#54A6FF"/>
</g>
<defs>
<clipPath id="clip0_197_4470">
<rect width="32" height="32" fill="white"/>
</clipPath>
</defs>
</svg>
