<svg width="32" height="32" viewBox="0 0 32 32" fill="none" xmlns="http://www.w3.org/2000/svg">
<g clip-path="url(#clip0_534_5094)">
<path d="M11.3686 11.7667C11.1204 10.9723 10.9714 10.3269 11.0707 9.58217C7.94287 8.39061 6.25482 4.76627 5.95693 1.39017C5.90728 0.844039 5.41079 0.446851 4.86466 0.496499C4.31853 0.546148 3.92134 1.04263 3.97099 1.58877C4.46747 6.75221 7.39673 10.7737 11.3686 11.7667Z" fill="#13B9B2"/>
<path d="M19.2129 19.76L19.7094 28.8954C19.759 29.6897 20.4045 30.2855 21.1988 30.2855C22.0429 30.2855 22.7379 29.5904 22.6883 28.6968L22.1422 19.0153L21.8443 18.916C21.0995 19.6607 20.0073 19.909 19.2129 19.76Z" fill="#13B9B2"/>
<path d="M11.4678 7.34799C13.0566 7.44729 14.3475 6.20608 14.4467 4.66697C14.546 3.07822 13.3048 1.78736 11.7657 1.68807C10.177 1.58877 8.88612 2.82998 8.78682 4.36908C8.68752 5.95784 9.92874 7.29834 11.4678 7.34799Z" fill="#13B9B2"/>
<path d="M11.5663 10.6744C12.0628 13.1568 14.0984 17.7741 18.7157 19.2139C19.8079 19.5615 20.9995 19.2139 21.7939 18.3699L24.7728 19.6608C25.7161 20.058 26.8084 19.4125 26.858 18.3699L27.0566 12.2135C27.1063 11.3695 26.4608 10.724 25.6168 10.6744C25.2693 10.6744 24.9217 10.7737 24.6735 10.9723C24.7231 11.1709 24.6735 11.4191 24.6239 11.6674C24.5246 11.9653 24.326 12.1639 24.1274 12.3624L24.0281 16.0861L22.3897 15.391C22.0918 14.547 21.3967 13.8023 20.4534 13.5044C18.7653 12.9582 17.9213 11.1709 17.5738 10.1779L22.8365 12.0646C23.333 12.2632 23.9288 11.9653 24.1274 11.4688C24.326 10.9723 24.0281 10.3765 23.5316 10.1779L15.8361 7.3976C13.6019 6.35498 11.1195 8.24162 11.5663 10.6744Z" fill="#13B9B2"/>
<path d="M2.49609 1.51172L2.49607 31.2717" stroke="#13B9B2" stroke-width="1.5" stroke-linecap="round"/>
</g>
<defs>
<clipPath id="clip0_534_5094">
<rect width="32" height="32" fill="white"/>
</clipPath>
</defs>
</svg>
