<svg width="32" height="32" viewBox="0 0 32 32" fill="none" xmlns="http://www.w3.org/2000/svg">
<g clip-path="url(#clip0_6028_31232)">
<path d="M27.5466 15.1736L19.511 12.494L16.8313 4.45734C16.5769 3.69196 15.3079 3.69196 15.0535 4.45734L12.3735 12.494L4.33716 15.1736C3.95435 15.3008 3.69629 15.6588 3.69629 16.0626C3.69629 16.4664 3.95435 16.8243 4.33716 16.9515L12.3735 19.6314L15.0535 27.6678C15.1807 28.0506 15.5386 28.3087 15.9424 28.3087C16.3462 28.3087 16.7041 28.0506 16.8313 27.6678L19.5112 19.6314L27.5466 16.9515C27.9294 16.8243 28.1875 16.4664 28.1875 16.0626C28.1875 15.6588 27.9292 15.3008 27.5466 15.1736Z" fill="#0057B5"/>
<path d="M31.4819 3.80719L29.2617 2.69757L28.1511 0.476624C27.8325 -0.158875 26.7905 -0.158875 26.4739 0.476624L25.3643 2.69757L23.1431 3.80719C22.8254 3.96564 22.625 4.29083 22.625 4.64581C22.625 5.00104 22.8254 5.32623 23.1431 5.48444L25.3643 6.59406L26.4739 8.81525C26.6323 9.13287 26.9573 9.33331 27.3125 9.33331C27.6677 9.33331 27.9917 9.13287 28.1511 8.81525L29.2617 6.59406L31.4819 5.48444C31.7996 5.32526 32 5.00104 32 4.64581C32 4.29059 31.7996 3.96661 31.4819 3.80719Z" fill="#0057B5"/>
<path d="M8.85693 26.4493L6.63672 25.3397L5.52612 23.1185C5.20752 22.4833 4.16553 22.4833 3.84888 23.1185L2.73926 25.3397L0.518066 26.4493C0.200439 26.6075 0 26.9327 0 27.288C0 27.6432 0.200439 27.9681 0.518066 28.1266L2.73926 29.2362L3.84888 31.4572C4.00732 31.775 4.33228 31.9755 4.6875 31.9755C5.04272 31.9755 5.3667 31.775 5.52612 31.4572L6.63672 29.2362L8.85693 28.1266C9.17456 27.9672 9.375 27.6432 9.375 27.288C9.375 26.9327 9.17456 26.6085 8.85693 26.4493Z" fill="#0057B5"/>
<path d="M27.2437 22.625H26.3062V21.6875C26.3062 21.1694 25.8867 20.75 25.3687 20.75C24.8503 20.75 24.4312 21.1694 24.4312 21.6875V22.625H23.4937C22.9753 22.625 22.5562 23.0444 22.5562 23.5625C22.5562 24.0808 22.9753 24.5 23.4937 24.5H24.4312V25.4375C24.4312 25.9558 24.8503 26.375 25.3687 26.375C25.8867 26.375 26.3062 25.9558 26.3062 25.4375V24.5H27.2437C27.7617 24.5 28.1812 24.0808 28.1812 23.5625C28.1812 23.0444 27.7617 22.625 27.2437 22.625Z" fill="#0057B5"/>
<path d="M4.74365 7.625H5.68115V8.5625C5.68115 9.08081 6.10034 9.5 6.61865 9.5C7.13672 9.5 7.55615 9.08081 7.55615 8.5625V7.625H8.49365C9.01172 7.625 9.43115 7.20581 9.43115 6.6875C9.43115 6.16943 9.01172 5.75 8.49365 5.75H7.55615V4.8125C7.55615 4.29443 7.13672 3.875 6.61865 3.875C6.10034 3.875 5.68115 4.29443 5.68115 4.8125V5.75H4.74365C4.22534 5.75 3.80615 6.16943 3.80615 6.6875C3.80615 7.20581 4.22534 7.625 4.74365 7.625Z" fill="#0057B5"/>
</g>
<defs>
<clipPath id="clip0_6028_31232">
<rect width="32" height="32" fill="white"/>
</clipPath>
</defs>
</svg>
