<svg width="32" height="32" viewBox="0 0 32 32" fill="none" xmlns="http://www.w3.org/2000/svg">
<path d="M24.1114 29.8969L19.2438 18.7711V12.2987C19.2438 12.2987 26.5016 7.36996 20.2066 0.427261C20.0866 0.295966 19.9412 0.190416 19.7792 0.117017C19.6172 0.043618 19.442 0.00390016 19.2642 0.000273068C19.0864 -0.00335403 18.9097 0.0291852 18.7448 0.0959169C18.58 0.162649 18.4304 0.262181 18.3051 0.388475L18.2974 0.396232C18.0572 0.637906 17.9206 0.963649 17.9167 1.30435C17.9127 1.64505 18.0416 1.97389 18.2761 2.22112C19.5531 3.57863 21.3033 6.39062 17.9027 9.38005C17.5654 9.67676 17.1643 9.89176 16.7304 10.0084L16.552 10.052C16.1734 10.1432 15.7786 10.1432 15.4001 10.052L15.2216 10.0084C14.7878 9.89176 14.3867 9.67676 14.0493 9.38005C10.6488 6.38965 12.4009 3.58154 13.676 2.22112C13.9105 1.97389 14.0394 1.64505 14.0354 1.30435C14.0314 0.963649 13.8949 0.637906 13.6547 0.396232L13.6508 0.388475C13.5255 0.262547 13.376 0.163346 13.2113 0.0968772C13.0466 0.030408 12.8701 -0.00194771 12.6925 0.00176891C12.5149 0.00548554 12.34 0.045197 12.1782 0.1185C12.0164 0.191802 11.8712 0.297172 11.7513 0.428231C5.45629 7.3719 12.7141 12.2997 12.7141 12.2997V18.7721L7.84648 29.8979C7.76558 30.0828 7.72283 30.2822 7.72078 30.4841C7.71873 30.686 7.75743 30.8862 7.83456 31.0728C7.91169 31.2594 8.02566 31.4285 8.16966 31.57C8.31366 31.7115 8.48473 31.8225 8.67262 31.8963C9.02492 32.0346 9.41645 32.0346 9.76873 31.8963C10.121 31.758 10.408 31.4917 10.5722 31.1507L15.9799 20.0966L21.3877 31.1507C21.5518 31.4917 21.8388 31.758 22.1911 31.8963C22.5434 32.0346 22.9349 32.0346 23.2872 31.8963C23.4751 31.8223 23.646 31.7111 23.7899 31.5695C23.9338 31.4278 24.0476 31.2586 24.1246 31.0719C24.2015 30.8852 24.24 30.685 24.2377 30.4831C24.2355 30.2812 24.1925 30.0818 24.1114 29.8969Z" fill="#13B9B2"/>
<path d="M15.9774 8.94752C17.5041 8.94752 18.7418 7.62126 18.7418 5.98523C18.7418 4.34921 17.5041 3.02295 15.9774 3.02295C14.4506 3.02295 13.2129 4.34921 13.2129 5.98523C13.2129 7.62126 14.4506 8.94752 15.9774 8.94752Z" fill="#13B9B2"/>
</svg>
